<svg width="88" height="70" viewBox="0 0 88 70" fill="none" xmlns="http://www.w3.org/2000/svg">
<circle cx="75" cy="56" r="13" fill="#E9D758"/>
<circle cx="35" cy="35" r="35" fill="#122844"/>
<path d="M15.6094 16.1459C15.2734 16.3178 15 16.7787 15 17.1693C15 17.31 15.0781 17.5678 15.1797 17.7396C15.3359 18.0287 15.4922 18.1225 17.0469 18.9115L18.7344 19.7631L19.2578 22.974C19.5469 24.7318 20.3359 29.5834 21.0078 33.7474L22.2422 41.3178L21.9531 43.1537C21.7656 44.3099 21.625 45.0053 21.5547 45.0443C21.5 45.0834 21.3359 45.1303 21.1797 45.1615C21.0312 45.1928 20.6797 45.3334 20.3906 45.474C18.75 46.3021 17.8125 47.7943 17.8047 49.6146C17.7734 53.1225 21.375 55.3725 24.5234 53.8256C25.6562 53.2631 26.6719 51.9975 26.9609 50.7865C27.0078 50.5678 27.0625 50.349 27.0781 50.2943C27.1016 50.2162 28.7344 50.2006 35.0859 50.2162L43.0703 50.2396L43.1797 50.7006C43.3984 51.6615 43.9922 52.6068 44.8047 53.2709C47.4141 55.4037 51.2656 54.1537 52.2344 50.8646C52.4141 50.2396 52.4141 49.0678 52.2344 48.4428C51.7656 46.8412 50.5547 45.6303 48.9453 45.1537C48.3281 44.974 47.1641 44.974 46.5234 45.1537C45.2344 45.5287 44.0703 46.474 43.5391 47.5756L43.4062 47.8568H35.0859H26.7578L26.5234 47.4037C26.1875 46.7553 25.25 45.849 24.5703 45.5131C24.2734 45.3646 24.0156 45.2474 24.0078 45.2396C24 45.2396 24.0938 44.6224 24.2109 43.8724L24.4219 42.5053L37.4609 42.4818L50.4922 42.4662L50.7656 42.2631C50.9141 42.1459 51.0938 41.9115 51.1719 41.7318C51.25 41.5521 52.1406 38.2631 53.1641 34.4115C54.7031 28.5912 55.0078 27.3568 54.9609 27.1068C54.8828 26.6693 54.4297 26.2474 53.9844 26.1849C53.7891 26.1537 46.4766 25.6928 37.7344 25.1537C28.9922 24.6146 21.8359 24.1693 21.8281 24.1615C21.8281 24.1537 21.6328 23.0053 21.4141 21.6068C21.1875 20.2084 20.9688 18.935 20.9297 18.7787C20.7891 18.2318 20.5547 18.0678 18.4297 16.9975C16.2656 15.9115 16.125 15.8646 15.6094 16.1459ZM37.6172 27.5053C45.6562 28.0053 52.25 28.4115 52.2734 28.4271C52.3047 28.4349 51.625 31.0599 50.7734 34.2631C49.9219 37.4662 49.2188 40.0912 49.2188 40.099C49.2188 40.1146 43.6406 40.1224 36.8203 40.1224H24.4141L23.3359 33.4584C22.7422 29.8021 22.2578 26.7474 22.2656 26.6771C22.2656 26.5756 22.3359 26.5599 22.6406 26.5834C22.8438 26.599 29.5781 27.0131 37.6172 27.5053ZM23.4766 47.5834C24.8594 48.2553 25.1875 50.1381 24.1172 51.2396C23.6328 51.7318 23.1484 51.9428 22.4688 51.9506C21.1406 51.9506 20.1406 50.974 20.1406 49.6537C20.1406 47.9193 21.9219 46.8178 23.4766 47.5834ZM48.7188 47.56C50.1328 48.2631 50.4688 50.1225 49.3906 51.2396C48.6094 52.0521 47.4141 52.1928 46.4688 51.5912C44.8359 50.56 45.1406 48.1068 46.9922 47.4428C47.4922 47.2631 48.2344 47.31 48.7188 47.56Z" fill="white"/>
<path d="M35.5859 29.6459C33.1094 29.7006 33.0781 29.7084 32.8047 30.3021C32.6719 30.599 32.6562 30.8412 32.6562 33.0131C32.6562 35.1303 32.6719 35.4271 32.7969 35.6693C33.2109 36.5053 34.4141 36.5053 34.8516 35.6693C34.9688 35.4506 35 35.224 35 34.4975V33.599L37.3281 35.9193C38.6016 37.1928 39.7266 38.2709 39.8203 38.3178C40.0625 38.4428 40.5938 38.4271 40.8594 38.2865C41.1562 38.1303 41.3906 37.8178 41.4531 37.4896C41.5625 36.9037 41.4688 36.7787 39.0234 34.3412C37.7578 33.0756 36.7188 32.0131 36.7188 31.9818C36.7188 31.9428 37.1328 31.9193 37.6406 31.9193C38.7344 31.9193 38.9766 31.8178 39.2344 31.2475C39.4844 30.6771 39.2734 30.0443 38.7578 29.7709C38.4453 29.6146 38.0312 29.599 35.5859 29.6459Z" fill="white"/>
</svg>
