<svg width="50" height="51" viewBox="0 0 50 51" fill="none" xmlns="http://www.w3.org/2000/svg">
<path d="M8.46986 2.80735C7.42724 2.06209 6.11827 1.73331 5.08023 1.9546C4.25422 2.1392 3.29777 3.10592 3.13091 3.92561C2.94726 4.80311 3.04341 5.53351 3.44322 6.51715L3.81333 7.41003L23.4718 27.6954L43.1303 47.9808L43.8026 48.2988C44.6558 48.7134 45.681 48.8696 46.451 48.7023C47.3185 48.5154 48.236 47.5686 48.4171 46.6735C48.5792 45.879 48.4278 44.8211 48.0261 43.9406L47.7179 43.2469L28.2701 23.1488C17.5633 12.1006 8.66567 2.94929 8.46986 2.80735Z" fill="#122844"/>
<path d="M2.25235 43.4788C1.22735 45.272 1.33253 47.1598 2.48762 48.1293C3.42199 48.8913 4.83256 48.9517 6.22237 48.2831L6.89405 47.9652L26.537 27.6959L46.1799 7.42653L46.4879 6.73343C46.8895 5.85378 47.0409 4.79691 46.8791 4.0032C46.6984 3.10901 45.782 2.16338 44.9154 1.97685C44.1462 1.80993 43.122 1.96619 42.2696 2.38053L41.5979 2.69838L22.0874 22.8011C4.53624 40.8819 2.53513 42.9618 2.25235 43.4788Z" fill="#122844"/>
</svg>
