<svg width="40" height="40" viewBox="0 0 40 40" fill="none" xmlns="http://www.w3.org/2000/svg">
<g clip-path="url(#clip0_5_42)">
<path d="M8.78908 4.8125C8.70314 4.83593 8.35158 4.90625 8.00783 4.96875C5.06252 5.53125 2.47658 7.55468 1.12502 10.3516C-0.195296 13.0859 -0.179671 16.2422 1.15627 18.9766C1.5547 19.7734 2.10939 20.6094 2.62502 21.1641L3.03908 21.6172L3.06252 27.8984C3.08595 34.875 3.0547 34.4844 3.6172 34.9766C3.77345 35.1172 4.03127 35.2656 4.19533 35.3047C4.35939 35.3516 5.20314 35.3906 6.07033 35.3906H7.65627L7.70314 35.1797C8.14064 33.1719 9.4922 31.6016 11.3125 30.9766C12.1797 30.6719 13.461 30.6172 14.3594 30.8437C16.2422 31.3203 17.6563 32.6562 18.2735 34.5234C18.3672 34.8047 18.4375 35.1094 18.4375 35.2109V35.3906H20.0625C20.9531 35.3906 21.8125 35.3516 21.9688 35.3125C22.3594 35.2031 22.7266 34.8828 22.8985 34.4922C23.0391 34.1953 23.0469 33.7266 23.0469 24.625C23.0469 16.2031 23.0313 15.0391 22.9297 14.7891C22.625 14.0703 22.2266 13.8828 20.8828 13.8437C20.3125 13.8281 19.8438 13.7969 19.8438 13.7734C19.8438 13.7578 19.8047 13.4844 19.7578 13.1797C19.1406 9.10937 16.0938 5.86718 12.0313 4.96093C11.461 4.83593 9.14064 4.72656 8.78908 4.8125ZM11.0391 6.96093C13.5235 7.32812 15.625 8.78906 16.7969 10.9609C18.0938 13.3672 18.0391 16.0703 16.6328 18.5781C16.1563 19.4141 14.875 20.7109 14.0235 21.2031C12.2266 22.2422 10.3906 22.5703 8.4922 22.1797C6.89845 21.8594 5.71877 21.2109 4.53127 20.0078C3.3672 18.8281 2.7422 17.6719 2.42189 16.0937C1.73439 12.7187 3.45314 9.25781 6.60158 7.67187C7.89845 7.02343 9.60939 6.75 11.0391 6.96093Z" fill="#E9D758"/>
<path d="M9.64844 8.71092C9.50001 8.85155 9.45313 8.98436 9.44532 9.27342C9.44532 9.47655 9.39844 10.4844 9.35157 11.5C9.25782 13.3437 9.25001 13.3515 9.04688 13.539C8.12501 14.3906 8.60938 15.8594 9.87501 16.0469C10.1484 16.0937 10.3906 16.2656 11.4453 17.1953C12.1328 17.7969 12.7734 18.3281 12.8594 18.375C13.2031 18.539 13.8281 18.0312 13.8281 17.6015C13.8281 17.5156 13.3047 16.8359 12.6563 16.0859C12.0156 15.3359 11.4688 14.6484 11.4453 14.5469C11.4219 14.4531 11.3906 14.2812 11.3672 14.1719C11.3438 14.0625 11.1875 13.8281 11.0156 13.6484L10.7188 13.3203L10.6328 11.4453C10.5859 10.414 10.5469 9.42186 10.5469 9.23436C10.5469 8.98436 10.5 8.85155 10.3516 8.71092C10.1094 8.46092 9.89063 8.46092 9.64844 8.71092Z" fill="#E9D758"/>
<path d="M25.5078 17.1016C25.1172 17.2812 24.7969 17.6484 24.6875 18.0469C24.6328 18.25 24.6172 20.9531 24.625 26.3047L24.6484 34.2578L24.8594 34.6094C25.0703 34.9766 25.4687 35.2578 25.8984 35.3438C26.1406 35.3984 26.1406 35.3984 26.2422 34.9062C26.5547 33.3906 27.7031 31.9453 29.1641 31.2422C30.0469 30.8125 30.7578 30.6797 31.8203 30.7188C32.7969 30.7578 33.5 30.9609 34.2812 31.4219C34.8516 31.7578 35.9062 32.8047 36.2344 33.375C36.4766 33.7812 36.7891 34.625 36.9141 35.1875L36.9609 35.4062L37.9141 35.3828C38.7891 35.3516 38.8984 35.3359 39.2344 35.1406C39.5078 34.9766 39.6484 34.8203 39.8047 34.5L40.0078 34.0859L39.9844 29.7969L39.9609 25.5078L39.7422 24.8906C39.3984 23.9062 39.0703 23.4062 37.0781 20.7422C34.9922 17.9531 34.5156 17.4062 33.9453 17.1406L33.5547 16.9531H29.6875C26.1016 16.9531 25.7969 16.9688 25.5078 17.1016ZM33.3516 20.1719C33.6406 20.3828 36.9297 24.9219 37.2266 25.5234C37.5703 26.2344 37.9453 26.1719 33.3203 26.1719H29.2187V23.0859V20H31.1641C33.0469 20 33.1094 20.0078 33.3516 20.1719Z" fill="#E9D758"/>
<path d="M12.5391 32.664C10.6641 32.9375 9.28125 34.8125 9.59375 36.6718C9.99219 39.0859 12.5391 40.3906 14.7109 39.289C16.0234 38.6172 16.7813 37.125 16.5703 35.6406C16.2891 33.7265 14.4766 32.3906 12.5391 32.664Z" fill="#E9D758"/>
<path d="M31.211 32.6328C30.3672 32.7265 29.6485 33.0703 29.0469 33.6796C27.1094 35.6093 28.0156 38.8749 30.6797 39.5703C31.8828 39.8828 33.125 39.539 34.0235 38.6328C35.4063 37.2578 35.4141 35.0468 34.0469 33.6718C33.3047 32.9374 32.1953 32.5234 31.211 32.6328Z" fill="#E9D758"/>
</g>
<defs>
<clipPath id="clip0_5_42">
<rect width="40" height="40" fill="white"/>
</clipPath>
</defs>
</svg>
