<svg width="100" height="100" viewBox="0 0 100 100" fill="none" xmlns="http://www.w3.org/2000/svg">
<g clip-path="url(#clip0_5_61)">
<path d="M47.337 0.076088C41.7174 0.413048 36.7065 1.51087 31.6304 3.51087C24.0652 6.5 17.3478 11.2826 12.0544 17.4457C4.96739 25.7065 0.847829 35.837 0.108699 46.7935C-0.630432 57.9239 2.48913 69.2391 8.83696 78.3696C14.5544 86.6087 22.4022 92.8478 31.6304 96.4891C36.6522 98.4674 41.5 99.5544 46.9022 99.8913C58.9239 100.652 70.6848 97.0761 80.3261 89.7391C88.6087 83.4457 94.8587 74.4565 97.8261 64.5652C99.0109 60.5978 99.6304 57.1631 99.8913 53.0978C100.446 44.25 98.6304 35.337 94.6739 27.5544C93.5652 25.3804 92.5652 23.6631 91.4348 22.0109C84.3044 11.5978 74.087 4.47826 61.8804 1.42392C57.6196 0.347832 51.75 -0.195648 47.337 0.076088ZM84.4348 29.0326C84.413 29.0652 82.7935 30.4565 80.8152 32.1087C78.8478 33.7718 75.4674 36.6087 73.3152 38.4131C69.5 41.6196 59.8913 49.7065 57.6087 51.6304C56.9783 52.1631 55.4457 53.4457 54.1957 54.5L51.9239 56.4022L51.5761 56.1087C51.3804 55.9457 50.6631 55.3478 49.9891 54.7717C49.3044 54.1957 46.4022 51.7609 43.5326 49.3478C37.6413 44.3913 30.5326 38.4131 27.837 36.1413C26.837 35.3044 24.5435 33.3804 22.7391 31.8587C20.9348 30.337 19.4565 29.0652 19.4565 29.0326C19.4565 29 34.087 28.9674 51.9565 28.9674C69.837 28.9674 84.4457 29 84.4348 29.0326ZM24.087 35.5761C26.7826 37.8587 31.6304 41.9674 34.8696 44.7174C38.1087 47.4565 40.7609 49.7391 40.7609 49.7935C40.7609 49.8478 39.6957 51.1522 38.4022 52.6957C35.9457 55.6087 32.5217 59.6848 26.6304 66.7283C24.75 68.9783 22.4783 71.6957 21.5761 72.7609C20.6848 73.8261 19.7717 74.9131 19.5652 75.1739C19.3587 75.4348 19.1522 75.6413 19.1087 75.6522C19.0543 75.6522 19.0217 65.6957 19.0217 53.5326C19.0217 41.3696 19.0543 31.4131 19.1087 31.4131C19.1522 31.4239 21.3913 33.2935 24.087 35.5761ZM84.6522 64.5652L84.6196 75.6739L83.1304 73.8913C82.3152 72.9131 80.1957 70.3804 78.4022 68.25C76.6196 66.1196 73.587 62.5 71.663 60.2065C69.7391 57.9131 66.9891 54.6196 65.5435 52.9022C64.0978 51.1739 62.9348 49.75 62.9565 49.7391C63 49.6957 71.1304 42.8261 78.4239 36.6522L84.6196 31.4022L84.6522 42.4348C84.663 48.5 84.663 58.4565 84.6522 64.5652ZM65.4022 55.6522C67.4239 58.0761 71.0109 62.3478 73.3696 65.1631C75.7283 67.9674 78.5326 71.3261 79.6087 72.6087C80.6739 73.8913 81.7065 75.1087 81.8804 75.2935C82.0652 75.4891 82.1848 75.6739 82.1522 75.7065C82.1304 75.7391 68.5 75.75 51.8804 75.7391L21.6522 75.7065L24.2717 72.6087C33.3696 61.8696 36.9783 57.6087 39.4891 54.6413C41.0435 52.8044 42.3478 51.3044 42.3804 51.3044C42.413 51.3044 43.6739 52.3152 45.163 53.5435C46.663 54.7717 48.4891 56.2717 49.2283 56.8804C49.9783 57.4891 50.8587 58.2174 51.1848 58.5109C51.5217 58.7935 51.8587 59.0109 51.9239 59C52.0435 58.9674 56.9565 54.8696 60.3261 51.9783C61.1848 51.2391 61.5 51.0326 61.587 51.1304C61.6631 51.1957 63.3696 53.2283 65.4022 55.6522Z" fill="#E9D758"/>
</g>
<defs>
<clipPath id="clip0_5_61">
<rect width="100" height="100" fill="white"/>
</clipPath>
</defs>
</svg>
