<svg width="238" height="43" viewBox="0 0 238 43" fill="none" xmlns="http://www.w3.org/2000/svg">
<g clip-path="url(#clip0_1_119)">
<path d="M55.4064 27.28C53.7451 27.28 52.4384 27 51.4864 26.44C50.5344 25.88 49.8624 25.1053 49.4704 24.116C49.0784 23.1267 48.8824 21.9973 48.8824 20.728V19.524H53.7824V21.008C53.7824 21.456 53.8011 21.8947 53.8384 22.324C53.8944 22.7347 54.0344 23.0707 54.2584 23.332C54.5011 23.5933 54.8838 23.724 55.4064 23.724C55.9291 23.724 56.3118 23.5933 56.5544 23.332C56.7971 23.052 56.9464 22.6973 57.0024 22.268C57.0771 21.82 57.1144 21.3627 57.1144 20.896V16.92H53.3624V14.4H57.1144V10.256C57.1144 9.73333 57.0678 9.26667 56.9744 8.856C56.8998 8.42667 56.7411 8.09067 56.4984 7.848C56.2558 7.60533 55.8918 7.484 55.4064 7.484C54.8838 7.484 54.5104 7.624 54.2864 7.904C54.0624 8.16533 53.9224 8.51067 53.8664 8.94C53.8104 9.35067 53.7824 9.78933 53.7824 10.256V11.824H48.8824V10.704C48.8824 9.416 49.0691 8.25867 49.4424 7.232C49.8344 6.20533 50.5064 5.40267 51.4584 4.824C52.4104 4.22667 53.7264 3.928 55.4064 3.928C57.1424 3.928 58.5051 4.24533 59.4944 4.88C60.4838 5.496 61.1838 6.37333 61.5944 7.512C62.0051 8.632 62.2104 9.96667 62.2104 11.516V19.664C62.2104 21.232 62.0051 22.5853 61.5944 23.724C61.1838 24.8627 60.4838 25.74 59.4944 26.356C58.5051 26.972 57.1424 27.28 55.4064 27.28ZM65.3519 27V4.32H70.3639V13.504H73.8639V4.32H78.9039V27H73.8639V17.088H70.3639V27H65.3519ZM82.3577 27V4.32H92.5497V7.736H87.3697V13.364H91.3177V16.836H87.3697V23.612H92.6057V27H82.3577ZM94.8812 27V4.32H102.497C103.86 4.32 104.98 4.58133 105.857 5.104C106.735 5.608 107.388 6.35467 107.817 7.344C108.247 8.31467 108.461 9.5 108.461 10.9C108.461 12.6547 108.172 13.9987 107.593 14.932C107.015 15.8467 106.231 16.4813 105.241 16.836C104.252 17.1907 103.141 17.368 101.909 17.368H99.8932V27H94.8812ZM99.8932 13.868H101.573C102.189 13.868 102.656 13.756 102.973 13.532C103.291 13.308 103.496 12.972 103.589 12.524C103.701 12.076 103.757 11.5067 103.757 10.816C103.757 10.2373 103.711 9.73333 103.617 9.304C103.543 8.856 103.347 8.50133 103.029 8.24C102.712 7.97867 102.217 7.848 101.545 7.848H99.8932V13.868ZM110.961 27V4.32H121.461V8.044H115.973V27H110.961ZM130.334 27.336C128.636 27.336 127.292 27.0373 126.302 26.44C125.313 25.8427 124.604 24.984 124.174 23.864C123.745 22.744 123.53 21.4093 123.53 19.86V11.432C123.53 9.864 123.745 8.52933 124.174 7.428C124.604 6.32667 125.313 5.48667 126.302 4.908C127.292 4.31067 128.636 4.012 130.334 4.012C132.052 4.012 133.405 4.31067 134.394 4.908C135.402 5.48667 136.121 6.32667 136.55 7.428C136.98 8.52933 137.194 9.864 137.194 11.432V19.86C137.194 21.4093 136.98 22.744 136.55 23.864C136.121 24.984 135.402 25.8427 134.394 26.44C133.405 27.0373 132.052 27.336 130.334 27.336ZM130.334 23.78C130.857 23.78 131.24 23.6493 131.482 23.388C131.725 23.1267 131.884 22.7907 131.958 22.38C132.033 21.9693 132.07 21.5493 132.07 21.12V10.2C132.07 9.752 132.033 9.332 131.958 8.94C131.884 8.52933 131.725 8.19333 131.482 7.932C131.24 7.67067 130.857 7.54 130.334 7.54C129.849 7.54 129.485 7.67067 129.242 7.932C129 8.19333 128.841 8.52933 128.766 8.94C128.692 9.332 128.654 9.752 128.654 10.2V21.12C128.654 21.5493 128.682 21.9693 128.738 22.38C128.813 22.7907 128.962 23.1267 129.186 23.388C129.429 23.6493 129.812 23.78 130.334 23.78ZM142.288 27V8.044H138.872V4.32H150.716V8.044H147.328V27H142.288ZM152.713 27V4.32H160.329C161.692 4.32 162.812 4.58133 163.689 5.104C164.567 5.608 165.22 6.35467 165.649 7.344C166.079 8.31467 166.293 9.5 166.293 10.9C166.293 12.6547 166.004 13.9987 165.425 14.932C164.847 15.8467 164.063 16.4813 163.073 16.836C162.084 17.1907 160.973 17.368 159.741 17.368H157.725V27H152.713ZM157.725 13.868H159.405C160.021 13.868 160.488 13.756 160.805 13.532C161.123 13.308 161.328 12.972 161.421 12.524C161.533 12.076 161.589 11.5067 161.589 10.816C161.589 10.2373 161.543 9.73333 161.449 9.304C161.375 8.856 161.179 8.50133 160.861 8.24C160.544 7.97867 160.049 7.848 159.377 7.848H157.725V13.868ZM167.152 27L171.436 4.32H177.148L181.376 27H176.756L176 22.212H172.668L171.884 27H167.152ZM173.116 19.216H175.524L174.32 10.368L173.116 19.216ZM183.75 27V4.32H188.762V13.504H192.262V4.32H197.302V27H192.262V17.088H188.762V27H183.75ZM207.252 27.336C205.535 27.336 204.172 27.028 203.164 26.412C202.175 25.7773 201.475 24.9 201.064 23.78C200.654 22.6413 200.448 21.3067 200.448 19.776V11.6C200.448 10.032 200.654 8.688 201.064 7.568C201.475 6.42933 202.175 5.552 203.164 4.936C204.172 4.32 205.535 4.012 207.252 4.012C208.932 4.012 210.239 4.292 211.172 4.852C212.124 5.39333 212.796 6.15867 213.188 7.148C213.58 8.13733 213.776 9.276 213.776 10.564V12.524H208.876V10.256C208.876 9.808 208.848 9.37867 208.792 8.968C208.755 8.55733 208.624 8.22133 208.4 7.96C208.176 7.68 207.794 7.54 207.252 7.54C206.73 7.54 206.338 7.68 206.076 7.96C205.834 8.24 205.675 8.59467 205.6 9.024C205.544 9.43467 205.516 9.87333 205.516 10.34V21.008C205.516 21.512 205.554 21.9787 205.628 22.408C205.722 22.8187 205.89 23.1547 206.132 23.416C206.394 23.6587 206.767 23.78 207.252 23.78C207.775 23.78 208.148 23.6493 208.372 23.388C208.596 23.108 208.736 22.7533 208.792 22.324C208.848 21.8947 208.876 21.456 208.876 21.008V18.628H213.776V20.588C213.776 21.876 213.58 23.0333 213.188 24.06C212.815 25.068 212.152 25.8707 211.2 26.468C210.267 27.0467 208.951 27.336 207.252 27.336Z" fill="#E9D758"/>
<path d="M51.5396 36.2826C51.3123 36.2855 51.0836 36.3437 50.8535 36.4574C50.6262 36.571 50.4359 36.7216 50.2825 36.9091C50.1319 37.0937 50.0566 37.2997 50.0566 37.527H49.068C49.068 37.2429 49.1362 36.9701 49.2725 36.7088C49.4089 36.4474 49.5921 36.2145 49.8222 36.0099C50.0552 35.8054 50.3194 35.6434 50.6149 35.5241C50.9132 35.4048 51.2214 35.3451 51.5396 35.3451C52.1362 35.3451 52.6418 35.4957 53.0566 35.7969C53.4742 36.098 53.791 36.4957 54.0069 36.99C54.2257 37.4844 54.335 38.0213 54.335 38.6008V38.8395C54.335 39.4162 54.2257 39.9531 54.0069 40.4503C53.791 40.9446 53.4742 41.3423 53.0566 41.6434C52.6418 41.9446 52.1362 42.0951 51.5396 42.0951C51.0623 42.0951 50.6376 41.99 50.2654 41.7798C49.8933 41.5667 49.6007 41.2826 49.3876 40.9275C49.1745 40.5724 49.068 40.1775 49.068 39.7429H50.0566C50.0566 39.99 50.1262 40.2216 50.2654 40.4375C50.4075 40.6505 50.5907 40.8238 50.8151 40.9574C51.0424 41.088 51.2839 41.1548 51.5396 41.1576C51.9203 41.1548 52.2441 41.0355 52.5112 40.7997C52.7782 40.5639 52.9813 40.2684 53.1205 39.9133C53.2597 39.5582 53.3293 39.2003 53.3293 38.8395V38.6008C53.3293 38.2315 53.2597 37.8707 53.1205 37.5184C52.9842 37.1633 52.7825 36.8693 52.5154 36.6363C52.2512 36.4034 51.9259 36.2855 51.5396 36.2826ZM53.7384 38.2088V39.1463H50.8748V38.2088H53.7384ZM55.2874 41.9758V41.0383H55.5261C55.7221 41.0383 55.8855 41 56.0161 40.9233C56.1468 40.8437 56.2519 40.7059 56.3315 40.5099C56.4139 40.3111 56.4764 40.0355 56.519 39.6832C56.5644 39.3281 56.5971 38.8764 56.617 38.3281L56.7363 35.4304H61.0999V41.9758H60.0943V36.3679H57.6909L57.5886 38.7031C57.5659 39.24 57.5176 39.713 57.4437 40.1221C57.3727 40.5284 57.2633 40.8693 57.1156 41.1449C56.9707 41.4204 56.7775 41.6278 56.536 41.767C56.2945 41.9062 55.992 41.9758 55.6284 41.9758H55.2874ZM65.6894 42.1122C65.0587 42.1122 64.5147 41.973 64.0573 41.6946C63.6028 41.4133 63.2519 41.0213 63.0048 40.5184C62.7605 40.0128 62.6383 39.4247 62.6383 38.7542C62.6383 38.0838 62.7605 37.4929 63.0048 36.9815C63.2519 36.4673 63.5957 36.0667 64.036 35.7798C64.4792 35.49 64.9962 35.3451 65.5872 35.3451C65.9281 35.3451 66.2647 35.402 66.5971 35.5156C66.9295 35.6292 67.232 35.8139 67.5048 36.0696C67.7775 36.3224 67.9948 36.6576 68.1568 37.0753C68.3187 37.4929 68.3997 38.0071 68.3997 38.6179V39.044H63.3542V38.1747H67.3769C67.3769 37.8054 67.3031 37.4758 67.1553 37.1861C67.0105 36.8963 66.8031 36.6676 66.5332 36.5C66.2661 36.3324 65.9508 36.2486 65.5872 36.2486C65.1866 36.2486 64.84 36.348 64.5474 36.5469C64.2576 36.7429 64.0346 36.9986 63.8784 37.3139C63.7221 37.6292 63.644 37.9673 63.644 38.3281V38.9076C63.644 39.402 63.7292 39.821 63.8997 40.1648C64.073 40.5057 64.313 40.7656 64.6198 40.9446C64.9266 41.1207 65.2832 41.2088 65.6894 41.2088C65.9536 41.2088 66.1923 41.1719 66.4053 41.098C66.6212 41.0213 66.8073 40.9076 66.9636 40.7571C67.1198 40.6037 67.2406 40.4133 67.3258 40.1861L68.2974 40.4588C68.1951 40.7883 68.0232 41.0781 67.7818 41.3281C67.5403 41.5753 67.242 41.7684 66.8869 41.9076C66.5318 42.044 66.1326 42.1122 65.6894 42.1122ZM69.9295 41.9758V35.4304H70.9352V38.277H71.5999L73.9522 35.4304H75.2477L72.6056 38.5838L75.2818 41.9758H73.9863L71.8386 39.2145H70.9352V41.9758H69.9295ZM75.9998 36.3679V35.4304H81.318V36.3679H79.1703V41.9758H78.1646V36.3679H75.9998ZM82.785 44.4304V35.4304H83.7565V36.4701H83.8759C83.9497 36.3565 84.052 36.2116 84.1827 36.0355C84.3162 35.8565 84.5065 35.6974 84.7537 35.5582C85.0037 35.4162 85.3418 35.3451 85.7679 35.3451C86.319 35.3451 86.8048 35.4829 87.2253 35.7585C87.6458 36.0341 87.9739 36.4247 88.2097 36.9304C88.4455 37.4361 88.5634 38.0326 88.5634 38.7201C88.5634 39.4133 88.4455 40.0142 88.2097 40.5227C87.9739 41.0284 87.6472 41.4204 87.2296 41.6988C86.8119 41.9744 86.3304 42.1122 85.785 42.1122C85.3645 42.1122 85.0279 42.0426 84.775 41.9034C84.5222 41.7613 84.3276 41.6008 84.1912 41.4219C84.0548 41.24 83.9497 41.0895 83.8759 40.9701H83.7906V44.4304H82.785ZM83.7736 38.7031C83.7736 39.1974 83.846 39.6335 83.9909 40.0113C84.1358 40.3863 84.3475 40.6804 84.6259 40.8934C84.9043 41.1037 85.2452 41.2088 85.6486 41.2088C86.069 41.2088 86.4199 41.098 86.7011 40.8764C86.9852 40.652 87.1983 40.3508 87.3404 39.973C87.4852 39.5923 87.5577 39.169 87.5577 38.7031C87.5577 38.2429 87.4867 37.8281 87.3446 37.4588C87.2054 37.0866 86.9938 36.7926 86.7097 36.5767C86.4284 36.3579 86.0747 36.2486 85.6486 36.2486C85.2395 36.2486 84.8958 36.3523 84.6173 36.5596C84.3389 36.7642 84.1287 37.0511 83.9867 37.4204C83.8446 37.7869 83.7736 38.2145 83.7736 38.7031ZM92.7565 42.1122C92.1656 42.1122 91.6472 41.9716 91.2011 41.6903C90.758 41.4091 90.4114 41.0156 90.1614 40.5099C89.9142 40.0042 89.7906 39.4133 89.7906 38.7372C89.7906 38.0554 89.9142 37.4602 90.1614 36.9517C90.4114 36.4432 90.758 36.0483 91.2011 35.767C91.6472 35.4858 92.1656 35.3451 92.7565 35.3451C93.3475 35.3451 93.8645 35.4858 94.3077 35.767C94.7537 36.0483 95.1003 36.4432 95.3475 36.9517C95.5975 37.4602 95.7225 38.0554 95.7225 38.7372C95.7225 39.4133 95.5975 40.0042 95.3475 40.5099C95.1003 41.0156 94.7537 41.4091 94.3077 41.6903C93.8645 41.9716 93.3475 42.1122 92.7565 42.1122ZM92.7565 41.2088C93.2054 41.2088 93.5747 41.0937 93.8645 40.8636C94.1543 40.6335 94.3688 40.3309 94.508 39.9559C94.6472 39.5809 94.7168 39.1747 94.7168 38.7372C94.7168 38.2997 94.6472 37.892 94.508 37.5142C94.3688 37.1363 94.1543 36.8309 93.8645 36.598C93.5747 36.365 93.2054 36.2486 92.7565 36.2486C92.3077 36.2486 91.9384 36.365 91.6486 36.598C91.3588 36.8309 91.1443 37.1363 91.0051 37.5142C90.8659 37.892 90.7963 38.2997 90.7963 38.7372C90.7963 39.1747 90.8659 39.5809 91.0051 39.9559C91.1443 40.3309 91.3588 40.6335 91.6486 40.8636C91.9384 41.0937 92.3077 41.2088 92.7565 41.2088ZM96.4021 36.3679V35.4304H101.72V36.3679H99.5726V41.9758H98.5669V36.3679H96.4021ZM105.592 42.1122C104.961 42.1122 104.417 41.973 103.96 41.6946C103.505 41.4133 103.154 41.0213 102.907 40.5184C102.663 40.0128 102.541 39.4247 102.541 38.7542C102.541 38.0838 102.663 37.4929 102.907 36.9815C103.154 36.4673 103.498 36.0667 103.938 35.7798C104.382 35.49 104.899 35.3451 105.49 35.3451C105.83 35.3451 106.167 35.402 106.499 35.5156C106.832 35.6292 107.134 35.8139 107.407 36.0696C107.68 36.3224 107.897 36.6576 108.059 37.0753C108.221 37.4929 108.302 38.0071 108.302 38.6179V39.044H103.257V38.1747H107.279C107.279 37.8054 107.205 37.4758 107.058 37.1861C106.913 36.8963 106.705 36.6676 106.436 36.5C106.168 36.3324 105.853 36.2486 105.49 36.2486C105.089 36.2486 104.742 36.348 104.45 36.5469C104.16 36.7429 103.937 36.9986 103.781 37.3139C103.624 37.6292 103.546 37.9673 103.546 38.3281V38.9076C103.546 39.402 103.632 39.821 103.802 40.1648C103.975 40.5057 104.215 40.7656 104.522 40.9446C104.829 41.1207 105.186 41.2088 105.592 41.2088C105.856 41.2088 106.095 41.1719 106.308 41.098C106.524 41.0213 106.71 40.9076 106.866 40.7571C107.022 40.6037 107.143 40.4133 107.228 40.1861L108.2 40.4588C108.097 40.7883 107.926 41.0781 107.684 41.3281C107.443 41.5753 107.144 41.7684 106.789 41.9076C106.434 42.044 106.035 42.1122 105.592 42.1122ZM110.406 35.4304L111.974 38.1065L113.542 35.4304H114.702L112.588 38.7031L114.702 41.9758H113.542L111.974 39.4361L110.406 41.9758H109.247L111.327 38.7031L109.247 35.4304H110.406ZM120.517 38.2429V39.1804H116.904V38.2429H120.517ZM117.142 35.4304V41.9758H116.137V35.4304H117.142ZM121.284 35.4304V41.9758H120.279V35.4304H121.284ZM124.127 40.4929L127.28 35.4304H128.439V41.9758H127.433V36.9133L124.297 41.9758H123.121V35.4304H124.127V40.4929ZM135.327 35.4304V41.9758H134.321V35.4304H135.327ZM134.934 38.5497V39.4872C134.707 39.5724 134.481 39.6477 134.257 39.713C134.032 39.7755 133.797 39.8253 133.55 39.8622C133.302 39.8963 133.031 39.9133 132.736 39.9133C131.994 39.9133 131.399 39.713 130.95 39.3125C130.504 38.9119 130.281 38.3111 130.281 37.5099V35.4133H131.287V37.5099C131.287 37.8451 131.351 38.1207 131.478 38.3366C131.606 38.5525 131.78 38.713 131.998 38.8182C132.217 38.9233 132.463 38.9758 132.736 38.9758C133.162 38.9758 133.547 38.9375 133.89 38.8608C134.237 38.7812 134.585 38.6775 134.934 38.5497ZM139.916 42.1122C139.285 42.1122 138.741 41.973 138.284 41.6946C137.829 41.4133 137.478 41.0213 137.231 40.5184C136.987 40.0128 136.865 39.4247 136.865 38.7542C136.865 38.0838 136.987 37.4929 137.231 36.9815C137.478 36.4673 137.822 36.0667 138.263 35.7798C138.706 35.49 139.223 35.3451 139.814 35.3451C140.155 35.3451 140.491 35.402 140.824 35.5156C141.156 35.6292 141.459 35.8139 141.731 36.0696C142.004 36.3224 142.221 36.6576 142.383 37.0753C142.545 37.4929 142.626 38.0071 142.626 38.6179V39.044H137.581V38.1747H141.603C141.603 37.8054 141.53 37.4758 141.382 37.1861C141.237 36.8963 141.03 36.6676 140.76 36.5C140.493 36.3324 140.177 36.2486 139.814 36.2486C139.413 36.2486 139.067 36.348 138.774 36.5469C138.484 36.7429 138.261 36.9986 138.105 37.3139C137.949 37.6292 137.871 37.9673 137.871 38.3281V38.9076C137.871 39.402 137.956 39.821 138.126 40.1648C138.3 40.5057 138.54 40.7656 138.846 40.9446C139.153 41.1207 139.51 41.2088 139.916 41.2088C140.18 41.2088 140.419 41.1719 140.632 41.098C140.848 41.0213 141.034 40.9076 141.19 40.7571C141.346 40.6037 141.467 40.4133 141.552 40.1861L142.524 40.4588C142.422 40.7883 142.25 41.0781 142.008 41.3281C141.767 41.5753 141.469 41.7684 141.113 41.9076C140.758 42.044 140.359 42.1122 139.916 42.1122ZM146.815 42.1122C146.202 42.1122 145.673 41.9673 145.23 41.6775C144.787 41.3878 144.446 40.9886 144.207 40.4801C143.969 39.9716 143.849 39.3906 143.849 38.7372C143.849 38.0724 143.971 37.4858 144.216 36.9773C144.463 36.4659 144.807 36.0667 145.247 35.7798C145.69 35.49 146.207 35.3451 146.798 35.3451C147.258 35.3451 147.673 35.4304 148.042 35.6008C148.412 35.7713 148.714 36.0099 148.95 36.3167C149.186 36.6236 149.332 36.9815 149.389 37.3906H148.383C148.307 37.0923 148.136 36.8281 147.872 36.598C147.611 36.365 147.258 36.2486 146.815 36.2486C146.423 36.2486 146.079 36.3508 145.784 36.5554C145.491 36.7571 145.263 37.0426 145.098 37.4119C144.936 37.7784 144.855 38.2088 144.855 38.7031C144.855 39.2088 144.934 39.6491 145.094 40.0241C145.255 40.3991 145.483 40.6903 145.775 40.8977C146.071 41.1051 146.417 41.2088 146.815 41.2088C147.077 41.2088 147.314 41.1633 147.527 41.0724C147.74 40.9815 147.92 40.8508 148.068 40.6804C148.216 40.5099 148.321 40.3054 148.383 40.0667H149.389C149.332 40.4531 149.192 40.8011 148.967 41.1108C148.746 41.4176 148.452 41.6619 148.085 41.8437C147.721 42.0227 147.298 42.1122 146.815 42.1122ZM150.859 41.9758V35.4304H151.865V38.277H152.53L154.882 35.4304H156.177L153.535 38.5838L156.211 41.9758H154.916L152.768 39.2145H151.865V41.9758H150.859ZM159.231 42.1292C158.816 42.1292 158.439 42.0511 158.101 41.8949C157.763 41.7358 157.495 41.5071 157.296 41.2088C157.097 40.9076 156.998 40.544 156.998 40.1179C156.998 39.7429 157.072 39.4389 157.219 39.2059C157.367 38.9701 157.564 38.7855 157.812 38.652C158.059 38.5184 158.331 38.419 158.63 38.3537C158.931 38.2855 159.233 38.2315 159.537 38.1917C159.935 38.1406 160.258 38.1023 160.505 38.0767C160.755 38.0483 160.937 38.0014 161.05 37.9361C161.167 37.8707 161.225 37.7571 161.225 37.5951V37.5611C161.225 37.1406 161.11 36.8139 160.88 36.5809C160.652 36.348 160.307 36.2315 159.844 36.2315C159.364 36.2315 158.988 36.3366 158.715 36.5469C158.442 36.7571 158.251 36.9815 158.14 37.2201L157.185 36.8792C157.356 36.4815 157.583 36.1719 157.867 35.9503C158.154 35.7258 158.466 35.5696 158.804 35.4815C159.145 35.3906 159.481 35.3451 159.81 35.3451C160.02 35.3451 160.262 35.3707 160.535 35.4219C160.81 35.4701 161.076 35.571 161.331 35.7244C161.59 35.8778 161.804 36.1094 161.975 36.419C162.145 36.7287 162.231 37.1434 162.231 37.6633V41.9758H161.225V41.0895H161.174C161.106 41.2315 160.992 41.3835 160.833 41.5454C160.674 41.7074 160.462 41.8451 160.198 41.9588C159.934 42.0724 159.611 42.1292 159.231 42.1292ZM159.384 41.2258C159.782 41.2258 160.117 41.1477 160.39 40.9915C160.665 40.8352 160.873 40.6335 161.012 40.3863C161.154 40.1392 161.225 39.8792 161.225 39.6065V38.6861C161.182 38.7372 161.089 38.7841 160.944 38.8267C160.802 38.8665 160.637 38.902 160.449 38.9332C160.265 38.9616 160.084 38.9872 159.908 39.0099C159.735 39.0298 159.594 39.0469 159.486 39.0611C159.225 39.0951 158.981 39.1505 158.753 39.2273C158.529 39.3011 158.347 39.4133 158.208 39.5639C158.072 39.7116 158.003 39.9133 158.003 40.169C158.003 40.5184 158.133 40.7826 158.391 40.9616C158.652 41.1378 158.983 41.2258 159.384 41.2258ZM168.004 41.9758V36.3508H166.265C165.873 36.3508 165.565 36.4417 165.34 36.6236C165.116 36.8054 165.004 37.0554 165.004 37.3736C165.004 37.6861 165.105 37.9318 165.306 38.1108C165.511 38.2898 165.791 38.3792 166.146 38.3792H168.259V39.3167H166.146C165.703 39.3167 165.32 39.2386 164.999 39.0824C164.678 38.9261 164.431 38.7031 164.258 38.4133C164.085 38.1207 163.998 37.7741 163.998 37.3736C163.998 36.9701 164.089 36.6236 164.271 36.3338C164.453 36.044 164.713 35.821 165.051 35.6648C165.391 35.5085 165.796 35.4304 166.265 35.4304H168.958V41.9758H168.004ZM163.64 41.9758L165.498 38.7201H166.589L164.731 41.9758H163.64ZM174.179 41.9758V35.4304H175.185V38.277H175.85L178.202 35.4304H179.498L176.856 38.5838L179.532 41.9758H178.236L176.089 39.2145H175.185V41.9758H174.179ZM183.014 42.1122C182.423 42.1122 181.905 41.9716 181.459 41.6903C181.016 41.4091 180.669 41.0156 180.419 40.5099C180.172 40.0042 180.048 39.4133 180.048 38.7372C180.048 38.0554 180.172 37.4602 180.419 36.9517C180.669 36.4432 181.016 36.0483 181.459 35.767C181.905 35.4858 182.423 35.3451 183.014 35.3451C183.605 35.3451 184.122 35.4858 184.565 35.767C185.012 36.0483 185.358 36.4432 185.605 36.9517C185.855 37.4602 185.98 38.0554 185.98 38.7372C185.98 39.4133 185.855 40.0042 185.605 40.5099C185.358 41.0156 185.012 41.4091 184.565 41.6903C184.122 41.9716 183.605 42.1122 183.014 42.1122ZM183.014 41.2088C183.463 41.2088 183.833 41.0937 184.122 40.8636C184.412 40.6335 184.627 40.3309 184.766 39.9559C184.905 39.5809 184.975 39.1747 184.975 38.7372C184.975 38.2997 184.905 37.892 184.766 37.5142C184.627 37.1363 184.412 36.8309 184.122 36.598C183.833 36.365 183.463 36.2486 183.014 36.2486C182.565 36.2486 182.196 36.365 181.906 36.598C181.617 36.8309 181.402 37.1363 181.263 37.5142C181.124 37.892 181.054 38.2997 181.054 38.7372C181.054 39.1747 181.124 39.5809 181.263 39.9559C181.402 40.3309 181.617 40.6335 181.906 40.8636C182.196 41.0937 182.565 41.2088 183.014 41.2088ZM191.095 40.6122L193.379 35.4304H194.334L191.504 41.9758H190.686L187.907 35.4304H188.845L191.095 40.6122ZM188.521 35.4304V41.9758H187.515V35.4304H188.521ZM193.669 41.9758V35.4304H194.675V41.9758H193.669ZM196.515 41.9758V35.4304H201.663V41.9758H200.657V36.3679H197.521V41.9758H196.515ZM205.426 42.1292C205.011 42.1292 204.635 42.0511 204.297 41.8949C203.959 41.7358 203.69 41.5071 203.491 41.2088C203.292 40.9076 203.193 40.544 203.193 40.1179C203.193 39.7429 203.267 39.4389 203.415 39.2059C203.562 38.9701 203.76 38.7855 204.007 38.652C204.254 38.5184 204.527 38.419 204.825 38.3537C205.126 38.2855 205.429 38.2315 205.733 38.1917C206.13 38.1406 206.453 38.1023 206.7 38.0767C206.95 38.0483 207.132 38.0014 207.246 37.9361C207.362 37.8707 207.42 37.7571 207.42 37.5951V37.5611C207.42 37.1406 207.305 36.8139 207.075 36.5809C206.848 36.348 206.503 36.2315 206.04 36.2315C205.559 36.2315 205.183 36.3366 204.91 36.5469C204.638 36.7571 204.446 36.9815 204.335 37.2201L203.38 36.8792C203.551 36.4815 203.778 36.1719 204.062 35.9503C204.349 35.7258 204.662 35.5696 205 35.4815C205.341 35.3906 205.676 35.3451 206.005 35.3451C206.216 35.3451 206.457 35.3707 206.73 35.4219C207.005 35.4701 207.271 35.571 207.527 35.7244C207.785 35.8778 208 36.1094 208.17 36.419C208.341 36.7287 208.426 37.1434 208.426 37.6633V41.9758H207.42V41.0895H207.369C207.301 41.2315 207.187 41.3835 207.028 41.5454C206.869 41.7074 206.657 41.8451 206.393 41.9588C206.129 42.0724 205.807 42.1292 205.426 42.1292ZM205.579 41.2258C205.977 41.2258 206.312 41.1477 206.585 40.9915C206.861 40.8352 207.068 40.6335 207.207 40.3863C207.349 40.1392 207.42 39.8792 207.42 39.6065V38.6861C207.378 38.7372 207.284 38.7841 207.139 38.8267C206.997 38.8665 206.832 38.902 206.645 38.9332C206.46 38.9616 206.28 38.9872 206.103 39.0099C205.93 39.0298 205.79 39.0469 205.682 39.0611C205.42 39.0951 205.176 39.1505 204.949 39.2273C204.724 39.3011 204.542 39.4133 204.403 39.5639C204.267 39.7116 204.199 39.9133 204.199 40.169C204.199 40.5184 204.328 40.7826 204.586 40.9616C204.848 41.1378 205.179 41.2258 205.579 41.2258ZM214.642 38.2429V39.1804H211.029V38.2429H214.642ZM211.267 35.4304V41.9758H210.262V35.4304H211.267ZM215.409 35.4304V41.9758H214.404V35.4304H215.409ZM218.252 40.4929L221.405 35.4304H222.564V41.9758H221.558V36.9133L218.422 41.9758H217.246V35.4304H218.252V40.4929ZM228.344 41.9758V36.3508H226.605C226.213 36.3508 225.905 36.4417 225.68 36.6236C225.456 36.8054 225.344 37.0554 225.344 37.3736C225.344 37.6861 225.444 37.9318 225.646 38.1108C225.851 38.2898 226.13 38.3792 226.486 38.3792H228.599V39.3167H226.486C226.042 39.3167 225.66 39.2386 225.339 39.0824C225.018 38.9261 224.771 38.7031 224.598 38.4133C224.425 38.1207 224.338 37.7741 224.338 37.3736C224.338 36.9701 224.429 36.6236 224.611 36.3338C224.792 36.044 225.052 35.821 225.39 35.6648C225.731 35.5085 226.136 35.4304 226.605 35.4304H229.298V41.9758H228.344ZM223.98 41.9758L225.838 38.7201H226.929L225.071 41.9758H223.98Z" fill="#E9D758"/>
<path d="M25.2795 5.45801H43.2085V10.496H37.1449V40.68H31.3432V10.496H25.2795V5.45801Z" fill="#E9D758"/>
<path d="M39.8443 3.58801H38.2932C37.6702 3.58801 37.165 4.13959 37.165 4.82001V7.32801C37.165 8.00843 37.6702 8.56001 38.2932 8.56001H39.8443C40.4674 8.56001 40.9725 8.00843 40.9725 7.32801V4.82001C40.9725 4.13959 40.4674 3.58801 39.8443 3.58801Z" fill="#E9D758"/>
<path d="M30.2144 3.58801H28.6633C28.0402 3.58801 27.5352 4.13959 27.5352 4.82001V7.32801C27.5352 8.00843 28.0402 8.56001 28.6633 8.56001H30.2144C30.8375 8.56001 31.3425 8.00843 31.3425 7.32801V4.82001C31.3425 4.13959 30.8375 3.58801 30.2144 3.58801Z" fill="#E9D758"/>
<path d="M16.9598 3.58801H15.4086C14.7856 3.58801 14.2805 4.13959 14.2805 4.82001V7.32801C14.2805 8.00843 14.7856 8.56001 15.4086 8.56001H16.9598C17.5828 8.56001 18.0879 8.00843 18.0879 7.32801V4.82001C18.0879 4.13959 17.5828 3.58801 16.9598 3.58801Z" fill="#E9D758"/>
<path d="M7.33016 3.58801H5.77899C5.15595 3.58801 4.65088 4.13959 4.65088 4.82001V7.32801C4.65088 8.00843 5.15595 8.56001 5.77899 8.56001H7.33016C7.9532 8.56001 8.45827 8.00843 8.45827 7.32801V4.82001C8.45827 4.13959 7.9532 3.58801 7.33016 3.58801Z" fill="#E9D758"/>
<path d="M15.9728 6.07397C15.6706 6.07397 22.1573 13.796 29.4498 6.07397" stroke="#E9D758" stroke-miterlimit="10"/>
<path d="M2.1731 30.78V28.976H8.94179V31.22C8.94179 33.244 8.98205 35.312 11.1778 35.312C13.3736 35.312 13.5348 33.2 13.5348 31.044V25.06H8.35757V21.254H13.5348V15.006C13.5348 12.652 13.1923 10.826 11.1778 10.826C9.02234 10.826 8.94179 12.938 8.94179 15.006V17.36H2.1731V15.666C2.1731 9.83601 4.18756 5.45801 11.1778 5.45801C18.1681 5.45801 20.5654 9.92401 20.5654 16.898V29.174C20.5654 36.258 18.3293 40.658 11.1778 40.658C4.0264 40.658 2.1731 36.566 2.1731 30.78Z" fill="#E9D758"/>
<path d="M6.54419 6.07397C8.09535 13.246 28.6633 25.566 39.0581 6.07397" stroke="#E9D758" stroke-miterlimit="10"/>
</g>
<defs>
<clipPath id="clip0_1_119">
<rect width="238" height="43" fill="white"/>
</clipPath>
</defs>
</svg>
