<svg width="623" height="731" viewBox="0 0 623 731" fill="none" xmlns="http://www.w3.org/2000/svg">
<path d="M188.017 224.643C188.017 224.903 189.057 227.329 190.269 230.102C195.294 241.451 199.192 262.678 199.365 279.659C199.452 284.251 199.711 289.103 200.058 290.403L200.578 292.742L204.216 291.096L207.941 289.45L207.421 280.093C206.035 253.234 202.397 237.726 195.813 230.102C193.388 227.329 188.017 223.604 188.017 224.643Z" fill="#FEFDFD" fill-opacity="0.52"/>
<path d="M148.863 233.654C146.957 234.087 146.957 234.867 148.69 240.412C152.068 251.675 153.541 264.324 153.974 286.937C154.234 299.24 154.667 309.29 154.927 309.29C155.1 309.29 156.919 308.857 158.738 308.251L162.203 307.211L161.77 285.118C161.25 259.472 159.691 248.382 154.927 237.119C153.194 233.134 152.501 232.701 148.863 233.654Z" fill="#FEFDFD" fill-opacity="0.52"/>
<path d="M168.094 227.156C168.094 227.416 169.133 229.928 170.346 232.614C175.63 244.57 178.489 263.371 178.662 287.024C178.662 294.995 178.922 301.493 179.095 301.493C179.268 301.493 180.741 300.886 182.387 300.28L185.419 298.98V291.269C185.419 270.995 181.607 250.289 175.543 237.899C173.464 233.567 170.866 229.235 169.913 228.369C168.873 227.416 168.094 226.896 168.094 227.156Z" fill="#FEFDFD" fill-opacity="0.52"/>
<path d="M318.213 0.592987C317.347 0.939548 317.087 7.35088 317.087 28.6642V56.3023H328.348H339.609V28.6642C339.609 4.23185 339.436 0.939548 338.223 0.506348C336.577 -0.100128 319.772 -0.100128 318.213 0.592987Z" fill="#FEFDFD" fill-opacity="0.52"/>
<path d="M298.376 7.26427C283.563 15.1485 271.436 28.0578 263.12 44.606C258.356 54.223 252.985 73.7169 252.985 81.5145C252.985 83.074 255.324 83.1606 328.348 83.1606C401.372 83.1606 403.711 83.074 403.711 81.5145C403.711 77.9623 401.025 64.6198 398.86 57.8619C393.056 39.4942 381.362 22.9461 366.896 12.5493C361.612 8.82379 353.382 4.31853 351.736 4.31853C351.13 4.31853 350.87 14.8019 350.87 35.942V67.5655H328.348H305.826V35.942C305.826 11.2497 305.566 4.31853 304.786 4.31853C304.18 4.31853 301.235 5.61813 298.376 7.26427Z" fill="#FEFDFD" fill-opacity="0.52"/>
<path d="M258.702 98.929C260.435 111.405 266.585 125.181 274.555 134.798C283.477 145.541 296.903 154.032 310.763 157.844C320.292 160.357 336.404 160.357 346.019 157.757C373.392 150.393 393.662 127.607 398.08 98.929L398.687 95.2901H328.435H258.183L258.702 98.929Z" fill="#FEFDFD" fill-opacity="0.52"/>
<path d="M293.958 164.342L288.501 165.555V283.385V401.128H327.915H367.329V283.385V165.642L362.998 164.688C360.572 164.169 357.8 163.735 356.847 163.735C355.808 163.735 351.303 167.374 345.846 172.573C340.735 177.425 335.018 182.883 333.026 184.702L329.561 187.995L316.221 175.432C307.472 167.114 302.361 162.869 301.148 162.956C300.109 162.956 296.903 163.562 293.958 164.342Z" fill="#FEFDFD" fill-opacity="0.52"/>
<path d="M378.59 285.031V401.128H383.354H388.118V286.764C388.118 223.863 387.945 172.399 387.685 172.399C387.512 172.399 385.346 171.62 382.921 170.667L378.59 168.934V285.031Z" fill="#FEFDFD" fill-opacity="0.52"/>
<path d="M271.869 172.053L267.711 174.132V287.63V401.128H272.475H277.24V285.464C277.24 221.871 276.98 169.8 276.633 169.8C276.2 169.887 274.121 170.84 271.869 172.053Z" fill="#FEFDFD" fill-opacity="0.52"/>
<path d="M399.38 290.229V401.128H412.806H426.233L426.406 353.65L426.666 306.258L430.304 315.788C438.88 338.055 443.904 359.801 447.629 391.165C448.669 400.435 449.102 412.825 449.275 443.842C449.535 490.28 449.535 489.847 456.551 497.645C466.6 508.561 483.751 510.814 498.391 503.103C507.313 498.425 512.943 490.107 514.676 478.931C515.889 471.133 515.196 408.753 513.723 394.63C509.478 353.216 501.422 319.08 488.516 287.37C473.703 251.328 449.881 217.539 424.067 195.965C416.444 189.554 401.718 179.331 400.159 179.331C399.726 179.331 399.38 225.943 399.38 290.229Z" fill="#FEFDFD" fill-opacity="0.52"/>
<path d="M252.985 180.803C244.063 182.276 230.723 188.514 220.501 195.792C216.69 198.565 210.106 202.983 205.862 205.756L198.239 210.694L200.751 212.167C208.027 216.672 215.997 230.188 219.548 244.397C221.887 253.408 223.533 265.537 223.533 273.075C223.533 280.179 223.966 280.959 226.998 279.399C228.384 278.706 229.683 278.1 230.03 278.1C230.29 278.1 230.463 305.738 230.463 339.614V401.128H243.456H256.45V290.663C256.45 229.928 256.19 180.284 255.844 180.284C255.411 180.37 254.198 180.63 252.985 180.803Z" fill="#FEFDFD" fill-opacity="0.52"/>
<path d="M113.521 209.914C108.15 211.387 103.819 214.16 99.8341 218.838C96.4558 222.564 90.8253 233.134 89.6991 237.639L89.0928 239.978H94.2902H99.5743L101.74 235.213C104.945 228.109 107.977 224.643 113.174 222.131C117.332 220.138 118.198 219.965 120.451 220.918C124.349 222.477 130.672 229.928 133.444 235.906C139.854 250.115 142.453 265.884 142.366 290.229C142.366 315.095 139.681 330.084 132.751 344.812C130.152 350.357 124.089 357.202 120.451 358.675C118.198 359.628 117.332 359.455 113.088 357.375C105.032 353.476 101.047 345.939 96.7157 326.358C96.1959 324.106 95.9361 324.019 90.8253 324.019H85.5412L86.0609 364.913C86.5807 405.46 86.5807 405.893 88.4864 407.453C90.9985 409.532 93.2507 409.272 95.7628 406.76L97.9284 404.68V381.634V358.675L101.047 362.14C102.779 364.046 106.331 366.646 109.016 367.945L113.954 370.371L150.163 370.631C189.663 370.891 192.089 370.718 199.365 365.866C209.153 359.368 216.69 342.3 219.635 319.947C221.367 307.038 221.367 272.468 219.722 259.906C216.257 234.174 207.594 216.846 195.207 211.127C191.136 209.308 190.183 209.221 154.234 209.048C127.034 208.875 116.379 209.135 113.521 209.914ZM190.356 221.438C199.278 224.643 204.996 235.906 208.46 256.96C210.453 268.743 210.713 307.731 208.98 320.12C206.122 340.394 200.318 353.216 192.175 357.462C189.923 358.588 181.954 360.581 181.954 359.888C181.954 359.801 183.253 357.375 184.899 354.603C188.883 347.931 191.915 338.574 194.254 326.012C195.9 317.001 196.16 312.756 196.16 289.796C196.16 266.837 195.9 262.591 194.254 253.667C191.915 241.105 188.624 230.968 184.812 224.643C183.253 222.044 181.954 219.705 181.954 219.531C181.954 219.012 186.198 219.965 190.356 221.438ZM146.005 221.697C155.187 225.943 160.991 238.852 163.849 261.638C165.235 272.382 165.235 308.25 163.849 318.821C161.51 336.668 156.746 349.404 150.596 354.689C147.391 357.462 142.366 359.541 138.815 359.541C137.082 359.541 137.169 359.108 140.374 353.216C148.257 338.661 151.115 321.42 151.115 289.796C151.115 258.173 148.257 240.931 140.374 226.289L136.996 220.051H139.768C141.327 220.051 144.099 220.831 146.005 221.697ZM166.881 221.438C175.37 225.51 182.647 241.365 186.458 264.238C188.19 274.548 187.844 307.731 185.938 318.387C182.213 338.834 175.717 352.697 167.574 357.462C163.936 359.628 161.164 360.148 161.164 358.761C161.164 358.242 161.597 357.635 162.117 357.289C163.849 356.249 169.653 342.82 171.472 335.715C174.85 322.286 175.457 314.922 175.457 289.796C175.457 257.046 173.291 243.791 165.495 228.195C161.164 219.531 161.25 218.752 166.881 221.438Z" fill="#FEFDFD" fill-opacity="0.52"/>
<path d="M126.081 240.498C118.978 242.404 107.284 244.224 94.9832 245.263C81.0368 246.39 66.3107 245.35 50.3719 242.058C32.5274 238.332 22.8255 240.065 13.5568 248.642C-6.19348 266.837 -2.9884 299.5 19.5338 309.81C25.251 312.496 39.4573 315.702 53.7502 317.608C66.8304 319.427 95.8494 319.6 109.19 318.041C118.632 316.914 137.949 313.709 138.468 313.189C138.642 313.016 139.075 308.164 139.508 302.272C140.374 290.056 139.335 270.736 137.342 259.992C135.696 251.588 131.972 239.112 131.019 239.199C130.672 239.199 128.507 239.805 126.081 240.498Z" fill="#FEFDFD" fill-opacity="0.52"/>
<path d="M230.463 419.323V426.254H328.261C382.141 426.254 426.32 425.907 426.579 425.561C426.839 425.127 426.753 422.008 426.493 418.629L425.973 412.391H328.261H230.463V419.323Z" fill="#FEFDFD" fill-opacity="0.52"/>
<path d="M229.597 464.982C229.597 522.51 233.495 583.158 243.457 680.888C246.402 709.306 246.402 709.306 249.174 714.937C252.032 720.482 256.71 724.901 263.38 728.106C268.664 730.619 269.704 730.792 278.539 730.792C287.461 730.792 288.414 730.619 293.698 728.106C303.747 723.255 309.377 715.544 310.937 704.627C311.37 701.421 311.976 672.83 312.236 641.12C312.842 570.422 315.268 478.411 316.74 468.447L317.26 465.242H328.348H339.436L339.956 468.014C341.428 476.505 343.854 569.469 344.46 640.254C344.72 671.964 345.326 700.728 345.759 704.194C347.145 715.284 353.209 723.601 363.431 728.366C368.108 730.532 369.494 730.792 378.157 730.792C386.992 730.792 388.118 730.619 393.403 728.106C403.278 723.428 408.822 715.977 410.641 705.147C411.42 700.382 412.893 685.133 418.437 627.258C423.981 569.642 427.099 510.901 427.099 464.982V437.517H328.348H229.597V464.982Z" fill="#FEFDFD" fill-opacity="0.52"/>
<path d="M434.982 483.349C434.029 483.956 433.596 488.721 433.076 507.002C432.73 519.478 432.21 533.254 431.95 537.586C430.131 565.744 429.438 575.447 427.965 594.768C427.012 606.638 426.06 617.727 425.886 619.287L425.453 622.059H447.542H469.545V613.395C469.545 600.399 467.639 601.266 497.264 601.266C526.89 601.266 524.984 600.399 524.984 613.395V622.059H573.493H622.003V591.476C622.003 555.52 621.743 553.874 615.16 547.549C609.702 542.178 606.757 541.485 590.125 541.485H576.265L575.919 520.431C575.659 500.764 575.572 499.204 573.753 495.912C570.721 490.194 567.343 486.815 562.665 484.649C558.594 482.656 557.381 482.57 539.97 482.57H521.606L520.566 486.208C519.267 491.32 515.802 498.165 513.117 500.937L510.864 503.363L532.434 503.536L554.003 503.796L554.263 522.597L554.436 541.485H497.264H440.093L440.266 522.597L440.526 503.796L446.849 503.536L453.086 503.276L450.921 500.504C448.322 496.952 446.416 492.533 445.203 486.902L444.251 482.57H440.266C438.014 482.57 435.675 482.916 434.982 483.349Z" fill="#FEFDFD" fill-opacity="0.52"/>
<path d="M483.924 618.247C482.885 620.846 483.318 642.42 484.444 643.546C485.917 645.019 508.612 645.019 510.085 643.546C510.778 642.853 511.124 638.694 511.124 630.723C511.124 622.753 510.778 618.594 510.085 617.901C509.392 617.208 505.147 616.861 496.745 616.861C486.35 616.861 484.358 617.034 483.924 618.247Z" fill="#FEFDFD" fill-opacity="0.52"/>
<path d="M423.634 637.655C423.634 638.608 422.075 654.809 420.169 673.783C416.791 706.966 415.578 714.244 412.546 718.836L411.334 720.829H508.179H605.111L609.442 718.749C611.868 717.71 615.073 715.37 616.546 713.638C621.656 707.746 622.003 705.06 622.003 668.672V635.922H573.493H524.984V644.586C524.984 657.582 526.89 656.715 497.264 656.715C467.639 656.715 469.545 657.582 469.545 644.586V635.922H446.589C424.327 635.922 423.634 636.008 423.634 637.655Z" fill="#FEFDFD" fill-opacity="0.52"/>
</svg>
