<svg width="100" height="100" viewBox="0 0 100 100" fill="none" xmlns="http://www.w3.org/2000/svg">
<g clip-path="url(#clip0_5_57)">
<path d="M45.332 0.195312C35.625 1.13281 25.9961 5.09766 18.457 11.2305C16.2305 13.0273 12.7148 16.582 10.957 18.7891C6.48438 24.3945 2.8125 31.9727 1.28906 38.7695C0.332031 43.0273 0.117188 45.1172 0.117188 50C0.117188 54.8828 0.332031 56.9727 1.28906 61.2305C2.83203 68.1641 6.60156 75.8594 11.2305 81.543C13.0273 83.7695 16.582 87.2852 18.7891 89.043C24.3945 93.5156 31.9727 97.1875 38.7695 98.7109C43.0273 99.668 45.1172 99.8828 50 99.8828C54.8828 99.8828 56.9727 99.668 61.2305 98.7109C66.3281 97.5781 73.0078 94.7266 77.4023 91.8164C85 86.7578 90.8398 80.1172 94.8438 71.9727C97.2852 66.9922 98.6719 62.5195 99.5508 56.8359C100.02 53.6914 100.02 46.3086 99.5508 43.1641C98.6719 37.4805 97.2852 33.0078 94.8438 28.0273C92.2266 22.7148 89.3164 18.6523 85.1172 14.5117C80.9961 10.4297 77.2266 7.75391 71.9727 5.17578C67.0508 2.75391 62.4805 1.32812 57.0312 0.488281C54.5703 0.117188 47.8906 -0.0390625 45.332 0.195312ZM38.2031 22.3828C39.3555 23.2422 39.5117 23.6328 39.6875 26.3086C39.9805 31.1133 40.8398 34.9414 42.5 38.7891C43.4961 41.0938 43.6133 42.0898 43.0859 43.125C42.6758 43.9258 42.0703 44.3359 39.375 45.5859C38.125 46.1719 37.1094 46.7188 37.1094 46.7773C37.1094 46.8555 37.7539 47.8906 38.5547 49.1016C41.1523 52.9688 44.1797 56.2891 47.7148 59.1211C49.1406 60.2734 52.9688 62.8906 53.2227 62.8906C53.2812 62.8906 53.8672 61.7773 54.5117 60.4102C55.7617 57.7539 56.0352 57.3438 56.8945 56.9141C57.8906 56.3867 58.9258 56.5234 61.2109 57.5C65.0781 59.1602 68.8867 60.0195 73.6914 60.3125C76.3672 60.4883 76.7578 60.6445 77.6172 61.7969C78.0078 62.3242 78.0273 62.5781 78.0273 69.2383C78.0273 75.8984 78.0078 76.1523 77.6172 76.6797C76.6797 77.9492 76.4258 78.0273 73.1836 78.0078C64.1211 77.9297 54.0625 74.7656 45.9961 69.4531C31.6992 60.0391 22.832 44.6094 21.9531 27.6172C21.7969 24.6094 21.8945 23.8672 22.5977 23.0273C23.5547 21.8945 23.6719 21.875 30.9961 21.9336C37.3828 21.9727 37.6953 21.9922 38.2031 22.3828Z" fill="#E9D758"/>
</g>
<defs>
<clipPath id="clip0_5_57">
<rect width="100" height="100" fill="white"/>
</clipPath>
</defs>
</svg>
