<svg width="41" height="41" viewBox="0 0 41 41" fill="none" xmlns="http://www.w3.org/2000/svg">
<g clip-path="url(#clip0_5_3)">
<path d="M12.3055 0.175602C11.6727 0.464664 11.6415 0.566227 11.1571 3.88654C10.9227 5.51154 10.7118 6.85529 10.6962 6.87091C10.6883 6.88654 10.079 6.96466 9.35241 7.0506C7.83678 7.23029 7.48522 7.32404 6.79772 7.70685C5.69616 8.32404 4.7821 9.51935 4.55553 10.6522C4.39147 11.4647 3.36022 20.9256 3.36022 21.6678C3.35241 22.8709 3.75085 24.1053 4.45397 25.035C4.62585 25.2694 7.89147 28.574 11.7118 32.3865C17.7821 38.4412 18.7118 39.3397 19.118 39.535C19.8055 39.8709 20.2821 39.9881 21.0321 39.9803C21.8602 39.9803 22.5243 39.7928 23.1649 39.3865C23.7352 39.0272 36.243 26.5506 36.6493 25.9412C37.2587 25.0428 37.4852 23.574 37.1649 22.5975C36.7977 21.4725 36.9852 21.6756 30.0243 14.6834C26.4305 11.0819 23.204 7.87873 22.8524 7.56623C22.5008 7.26154 21.9696 6.87873 21.6805 6.72248C20.2274 5.96466 19.5087 5.90998 16.0008 6.30841C14.6258 6.46466 13.5008 6.58185 13.493 6.57404C13.4774 6.55841 13.6415 5.37873 13.8524 3.94123C14.2665 1.14435 14.2665 0.995914 13.9071 0.534977C13.704 0.277164 13.1962 0.0271645 12.868 0.0271645C12.743 0.0271645 12.4852 0.097477 12.3055 0.175602ZM20.4462 7.63654C20.743 7.75373 21.1493 7.94904 21.3446 8.07404C21.5399 8.19904 24.829 11.4412 28.6571 15.2772C35.3837 22.0115 35.6258 22.2694 35.7977 22.7225C36.0243 23.3475 36.0243 24.0506 35.7977 24.6756C35.6258 25.1287 35.3915 25.3709 29.1337 31.6444C24.6415 36.1444 22.5321 38.2069 22.2743 38.3475C21.5165 38.7537 20.5399 38.7694 19.743 38.3709C19.2899 38.1444 5.89928 24.7615 5.45397 24.0897C5.26647 23.8084 5.0321 23.3709 4.93835 23.1131C4.61022 22.2381 4.63366 21.6522 5.20397 16.5115C5.83678 10.8475 5.8446 10.7928 6.0946 10.2615C6.36803 9.68341 7.00084 9.05841 7.61803 8.77716C8.01647 8.58185 8.32897 8.51935 9.25866 8.40998C9.89147 8.33966 10.4227 8.3006 10.454 8.33185C10.5008 8.37091 10.3602 9.5506 10.3055 9.60529C10.2977 9.62091 9.86022 9.68341 9.32897 9.74591C8.80553 9.80841 8.25084 9.9256 8.10241 9.99591C7.74303 10.16 7.29772 10.6834 7.20397 11.035C7.11022 11.41 6.0321 21.1287 6.0321 21.6287C6.0321 22.1365 6.20397 22.7537 6.46178 23.2147C6.67272 23.5819 19.3446 36.3631 20.1102 36.9803C20.5321 37.324 20.8993 37.41 21.3602 37.2928C21.6649 37.2147 22.3602 36.535 28.0555 30.8631C31.7508 27.1756 34.454 24.4178 34.5165 24.2694C34.6571 23.949 34.6571 23.449 34.5165 23.1287C34.454 22.9803 31.5712 20.0428 27.5868 16.0662C20.2977 8.8006 20.493 8.97248 19.5008 8.76935C19.079 8.68341 18.7274 8.70685 16.0712 8.99591C14.4462 9.1756 13.1024 9.31623 13.0946 9.3006C13.0712 9.26935 13.2665 7.99591 13.3055 7.97248C13.3212 7.95685 14.4462 7.81623 15.7977 7.65998C18.7743 7.32404 19.6102 7.31623 20.4462 7.63654ZM9.89928 12.5428C9.78209 13.3631 9.74303 13.8631 9.78209 14.0506C10.0165 15.0819 11.2899 15.4412 12.0165 14.6756C12.2977 14.3709 12.3915 14.0584 12.5633 12.8006C12.6337 12.285 12.7196 11.8319 12.7587 11.7928C12.8368 11.699 13.2352 12.1365 13.4462 12.5584C14.1258 13.9334 13.5555 15.5194 12.1337 16.1912C11.7743 16.3553 11.5868 16.3944 11.0712 16.3944C10.5555 16.3944 10.368 16.3553 10.0087 16.1912C8.28209 15.3787 7.86803 13.2069 9.18834 11.8865C9.43834 11.6365 10.0243 11.2537 10.0633 11.3006C10.0712 11.3084 9.99303 11.8709 9.89928 12.5428ZM20.8212 22.2694L22.1727 28.6912L21.493 29.3709C20.8758 29.9881 20.8133 30.0272 20.7743 29.8553C20.7508 29.7615 20.1258 26.8006 19.3837 23.285L18.0321 16.8944L18.6962 16.2303C19.243 15.6756 19.3602 15.5897 19.4071 15.7069C19.4462 15.785 20.079 18.7381 20.8212 22.2694ZM25.5243 19.6365C26.0946 19.91 26.8758 20.6756 27.1571 21.2225C27.7274 22.3553 27.5243 23.5194 26.6102 24.449C26.0008 25.0506 25.5946 25.2225 24.743 25.2225C23.8524 25.2225 23.4696 25.0506 22.743 24.3319C21.5399 23.1287 21.4071 21.6834 22.3915 20.4725C23.2665 19.3944 24.4071 19.0897 25.5243 19.6365ZM16.3524 20.449C16.7274 20.6053 17.3837 21.1053 17.7118 21.4881C18.7821 22.7381 18.7508 24.2303 17.618 25.3709C16.7899 26.2147 15.704 26.4334 14.7118 25.9647C14.0868 25.6678 13.3524 24.9334 13.0243 24.285C12.8133 23.8709 12.7899 23.7381 12.7899 23.1131C12.7899 22.2694 12.954 21.8553 13.5633 21.2147C14.2274 20.5037 14.8212 20.2381 15.6024 20.2928C15.8602 20.3162 16.1962 20.3865 16.3524 20.449Z" fill="#E9D758"/>
<path d="M23.6571 21.1287C22.9852 21.66 23.118 22.4647 23.993 23.2537C24.6102 23.8084 25.1337 23.8944 25.5946 23.535C26.0321 23.1912 26.1337 22.7225 25.8758 22.2225C25.3524 21.1912 24.2587 20.6522 23.6571 21.1287Z" fill="#E9D758"/>
<path d="M14.6181 22.1209C14.0556 22.6443 14.1337 23.285 14.8368 23.9881C15.29 24.449 15.6259 24.6365 15.9853 24.6365C16.5947 24.6365 17.1181 24.0662 17.0243 23.4959C16.9697 23.1522 16.5947 22.6287 16.165 22.2693C15.4931 21.7225 15.0868 21.6834 14.6181 22.1209Z" fill="#E9D758"/>
</g>
<defs>
<clipPath id="clip0_5_3">
<rect width="40" height="40" fill="white" transform="translate(0.328857 0.0271606)"/>
</clipPath>
</defs>
</svg>
