<svg width="40" height="40" viewBox="0 0 40 40" fill="none" xmlns="http://www.w3.org/2000/svg">
<path d="M5.18029 7.13857C4.86779 7.32607 4.78185 7.56045 4.65685 8.56826L4.55529 9.41201L10.3756 9.42764L16.2037 9.45108L16.5006 9.63858C17.3131 10.1386 17.2819 11.3808 16.4459 11.873L16.11 12.0683H8.47716C0.0709124 12.0683 0.461537 12.0448 0.149037 12.5526C-0.0384626 12.8573 -0.0462751 13.162 0.109975 13.4745C0.367787 13.9667 -0.0384626 13.9433 8.13341 13.9433C15.2818 13.9433 15.5943 13.9511 15.9068 14.0917C16.4928 14.3573 16.8287 15.1151 16.6334 15.7167C16.5006 16.1073 16.2975 16.3651 15.9459 16.5761L15.6568 16.7558L10.3834 16.7636C6.50841 16.7636 5.03966 16.787 4.83654 16.8573C4.28185 17.0526 4.02404 17.8261 4.38341 18.2792C4.72716 18.7167 4.6256 18.7089 10.2115 18.7089H15.36L15.6256 18.8886C16.5162 19.4823 16.4303 20.8026 15.4693 21.3026L15.0553 21.5214H8.60997C1.54747 21.5214 1.84435 21.498 1.59435 21.9901C1.53185 22.1151 1.47716 22.3495 1.47716 22.5136C1.47716 23.0995 1.88341 23.3964 2.6881 23.3964C2.96935 23.3964 3.19591 23.4198 3.19591 23.4433C3.19591 23.4667 3.1256 24.2323 3.03185 25.1464C2.83654 27.1073 2.85997 27.6542 3.14904 28.2245C3.64904 29.2089 4.58654 29.7245 5.90685 29.7245H6.23497L6.35997 30.1776C6.74279 31.498 7.89122 32.6073 9.2506 32.9667C9.82872 33.1151 10.8365 33.1151 11.399 32.9667C12.7584 32.6073 13.9068 31.5683 14.399 30.2636L14.5865 29.7636L19.3365 29.7245C24.524 29.6776 24.3678 29.6933 25.0865 29.2167C25.2506 29.1073 25.399 29.0214 25.4225 29.0214C25.4459 29.0214 25.6022 29.1073 25.7584 29.2167C26.0865 29.4355 26.5865 29.6151 27.11 29.6855C27.4537 29.7245 27.4772 29.748 27.5162 29.998C27.6412 30.7792 28.485 31.9433 29.2897 32.4589C30.1803 33.0292 31.5475 33.2401 32.5943 32.9667C34.0006 32.5995 35.2428 31.4198 35.6881 30.037L35.774 29.7558L36.5084 29.6698C37.4615 29.5605 37.9772 29.3026 38.5865 28.662C39.3131 27.8808 39.3209 27.8261 39.6881 23.787C39.9693 20.748 39.9928 20.2558 39.9068 20.0683C39.7584 19.7792 39.4381 19.5526 39.0865 19.498L38.8053 19.4511L36.9459 15.8573C35.9225 13.8808 35.0006 12.1698 34.8912 12.0605C34.774 11.9433 34.5631 11.8339 34.3912 11.8105C34.2272 11.7792 32.6959 11.7558 30.985 11.7558C28.0553 11.7558 27.8756 11.748 27.9147 11.6151C28.0084 11.2792 28.1334 9.7792 28.1022 9.32608C28.0475 8.43545 27.5006 7.63076 26.6725 7.22451L26.2819 7.0292L15.8522 7.00576C5.7506 6.99014 5.41466 6.99795 5.18029 7.13857ZM30.4615 13.8026C30.4615 13.8573 30.36 14.998 30.235 16.3417C30.0787 18.0605 30.0319 18.8964 30.0787 19.1855C30.2272 20.1073 30.8444 20.8964 31.6803 21.2089C32.0787 21.3573 32.2818 21.3651 35.024 21.3651C36.6256 21.3651 37.9537 21.3808 37.9693 21.4042C37.9928 21.4198 37.8912 22.6855 37.7584 24.2089C37.5787 26.1308 37.4693 27.0526 37.3834 27.2089C37.1959 27.5761 36.8053 27.7714 36.2662 27.7714H35.7975L35.6334 27.3183C35.1881 26.1073 34.3209 25.2558 33.0865 24.8183C32.3209 24.5448 31.2819 24.537 30.4772 24.787C29.2975 25.1542 28.1412 26.2167 27.7037 27.3183C27.5397 27.748 27.5162 27.7714 27.274 27.7714C26.8912 27.7714 26.5553 27.412 26.5553 27.0058C26.5553 26.7167 27.5944 15.0136 27.6959 14.1151L27.7428 13.7089H29.1022C30.1412 13.7089 30.4615 13.7323 30.4615 13.8026ZM11.5475 26.7636C13.36 27.6698 13.1334 30.3183 11.1725 31.0605C10.3209 31.3808 9.2506 31.123 8.66466 30.4589C8.25841 29.9901 8.08654 29.537 8.08654 28.9042C8.07872 28.1933 8.35216 27.6151 8.90685 27.1151C9.38341 26.6855 9.78966 26.537 10.5084 26.5292C10.9772 26.5214 11.1334 26.5605 11.5475 26.7636ZM32.8209 26.7792C34.1647 27.5605 34.3756 29.3808 33.2662 30.498C32.7662 30.9901 32.3287 31.1698 31.5944 31.1698C30.8756 31.1698 30.399 30.9823 29.9459 30.5292C29.4615 30.0526 29.3287 29.6933 29.3287 28.9042C29.3287 28.3261 29.36 28.1464 29.5084 27.873C29.7819 27.3495 30.1178 27.0136 30.6412 26.7558C31.0944 26.5214 31.1725 26.5136 31.7975 26.537C32.3444 26.5605 32.524 26.6073 32.8209 26.7792Z" fill="#E9D758"/>
</svg>
